# PGS Square Branch Cosmos - 3D printable point cloud + violation highlights
# x=logp_norm, y=offset_norm, z=cutoff_norm ; red stars for violations
v 0.812239 0.130952 0.772908
v 0.863680 0.107143 0.832669
v 0.769663 0.107143 0.725100
v 0.771848 0.214286 0.725100
v 0.677404 0.130952 0.621514
v 0.644414 0.166667 0.585657
v 0.823851 0.130952 0.788845
v 0.940598 0.214286 0.928287
v 0.876604 0.107143 0.848606
v 0.702038 0.130952 0.649402
v 0.762025 0.345238 0.717131
v 0.880840 0.250000 0.852590
v 0.938515 0.130952 0.924303
v 0.951870 0.130952 0.940239
v 0.726886 0.488095 0.677291
v 0.961791 0.130952 0.952191
v 0.830979 0.071429 0.796813
v 0.866904 0.000000 0.836653
v 0.801359 0.416667 0.760956
v 0.906706 0.000000 0.884462
v 0.797904 0.000000 0.756972
v 0.868098 0.095238 0.840637
v 0.855414 0.000000 0.824701
v 0.941021 0.357143 0.928287
v 0.968237 0.071429 0.960159
v 0.808819 0.000000 0.768924
v 0.870077 0.178571 0.840637
v 0.396739 0.071429 0.334661
v 0.905298 0.130952 0.884462
v 0.927087 0.107143 0.912351
v 0.783393 0.178571 0.741036
v 0.854649 0.642857 0.824701
v 0.664248 0.166667 0.605578
v 0.897119 0.000000 0.872510
v 0.917566 0.166667 0.900398
v 0.769235 0.071429 0.725100
v 0.839666 0.107143 0.804781
v 0.839818 0.130952 0.804781
v 0.705201 0.107143 0.653386
v 0.986842 0.238095 0.984064
v 0.950352 0.166667 0.940239
v 0.949815 0.095238 0.940239
v 0.989360 0.107143 0.988048
v 0.927925 0.000000 0.912351
v 0.768616 0.273810 0.725100
v 0.814345 0.285714 0.776892
v 0.907165 0.107143 0.884462
v 0.973260 0.000000 0.968127
v 0.999306 0.273810 1.000000
v 0.902789 0.285714 0.880478
v 0.951634 0.428571 0.940239
v 0.970359 0.238095 0.964143
v 0.954369 0.107143 0.944223
v 0.818864 0.130952 0.780876
v 0.737861 0.214286 0.689243
v 0.862261 0.000000 0.832669
v 0.751884 0.857143 0.705179
v 0.942662 0.071429 0.928287
v 0.956673 0.285714 0.948207
v 0.937342 0.107143 0.924303
v 0.954988 0.095238 0.944223
v 0.689033 0.107143 0.633466
v 0.939094 0.238095 0.924303
v 0.767375 0.071429 0.721116
v 0.827077 0.130952 0.788845
v 0.956945 0.523810 0.948207
v 0.803193 0.166667 0.760956
v 0.431127 0.000000 0.366534
v 0.864342 0.166667 0.836653
v 0.977774 0.130952 0.972112
v 0.456146 0.000000 0.390438
v 0.589677 0.238095 0.525896
v 0.592218 0.250000 0.529880
v 0.981885 0.166667 0.980080
v 0.588091 0.095238 0.525896
v 0.933672 0.095238 0.920319
v 0.991188 0.178571 0.988048
v 0.799816 0.166667 0.756972
v 0.711902 0.357143 0.657371
v 0.900123 0.000000 0.876494
v 0.917710 0.130952 0.900398
v 0.982558 0.178571 0.980080
v 0.964170 0.214286 0.956175
v 0.666002 0.178571 0.609562
v 0.976191 0.285714 0.972112
v 0.503081 0.273810 0.438247
v 0.838168 0.000000 0.804781
v 0.902956 0.000000 0.880478
v 0.992472 0.166667 0.992032
v 0.877960 0.095238 0.852590
v 0.830307 0.095238 0.792829
v 0.967098 0.071429 0.960159
v 0.957913 0.095238 0.948207
v 0.693282 0.000000 0.637450
v 0.797308 0.166667 0.756972
v 0.858603 0.345238 0.828685
v 0.842885 0.071429 0.808765
v 0.921977 0.178571 0.904382
v 0.927554 0.071429 0.912351
v 0.977571 0.000000 0.972112
v 0.751254 0.071429 0.705179
v 0.614076 0.357143 0.553785
v 0.981262 0.000000 0.976096
v 0.866169 0.000000 0.836653
v 0.957780 0.214286 0.948207
v 0.990890 0.166667 0.988048
v 0.956387 0.000000 0.948207
v 0.979003 0.095238 0.976096
v 0.955002 0.130952 0.944223
v 0.933379 0.071429 0.916335
v 0.261982 0.071429 0.211155
v 0.339775 0.166667 0.282869
v 0.989452 0.071429 0.988048
v 0.593899 0.095238 0.533865
v 0.906939 0.238095 0.884462
v 0.874431 0.071429 0.848606
v 0.779194 0.142857 0.737052
v 0.812788 0.071429 0.772908
v 0.783497 0.130952 0.741036
v 0.979848 0.238095 0.976096
v 0.729772 0.202381 0.677291
v 0.968803 0.178571 0.960159
v 0.968272 0.130952 0.960159
v 0.388334 0.000000 0.326693
v 0.733450 0.000000 0.685259
v 0.846136 0.166667 0.812749
v 0.975300 0.071429 0.968127
v 0.808336 0.000000 0.768924
v 0.787644 0.250000 0.745020
v 0.750087 0.071429 0.701195
v 0.830243 0.202381 0.792829
v 0.851595 0.428571 0.820717
v 0.952144 0.107143 0.940239
v 0.974511 0.107143 0.968127
v 0.829302 0.107143 0.792829
v 0.855009 0.273810 0.824701
v 0.955083 0.214286 0.944223
v 0.980427 0.000000 0.976096
v 0.857741 0.000000 0.828685
v 0.650878 0.107143 0.593625
v 0.759471 0.178571 0.713147
v 0.837970 0.166667 0.804781
v 0.979422 0.357143 0.976096
v 0.862829 0.107143 0.832669
v 0.872473 0.000000 0.844622
v 0.967107 0.428571 0.960159
v 0.718576 0.142857 0.665339
v 0.961154 0.428571 0.952191
v 0.908002 0.000000 0.888446
v 0.829975 0.166667 0.792829
v 0.980432 0.202381 0.976096
v 0.726540 0.107143 0.677291
v 0.802962 0.202381 0.760956
v 0.917895 0.130952 0.900398
v 0.945837 0.130952 0.932271
v 0.960368 0.666667 0.952191
v 0.861894 0.130952 0.832669
v 0.780216 0.000000 0.737052
v 0.935438 0.130952 0.920319
v 0.790665 0.285714 0.749004
v 0.914017 0.357143 0.896414
v 0.543847 0.000000 0.482072
v 0.949507 0.130952 0.936255
v 0.981849 0.107143 0.980080
v 0.843766 0.095238 0.808765
v 0.989146 0.095238 0.988048
v 0.739944 0.000000 0.689243
v 0.752651 0.095238 0.705179
v 0.889341 0.000000 0.864542
v 0.985501 0.357143 0.984064
v 0.990138 0.000000 0.988048
v 0.879705 0.142857 0.852590
v 0.770628 0.273810 0.725100
v 0.968730 0.273810 0.960159
v 0.817333 0.071429 0.780876
v 0.769886 0.130952 0.725100
v 0.784983 0.095238 0.741036
v 0.906303 0.107143 0.884462
v 0.860082 0.000000 0.828685
v 0.668527 0.000000 0.613546
v 0.930997 0.178571 0.916335
v 0.981032 0.095238 0.976096
v 0.987634 0.000000 0.984064
v 0.835383 0.428571 0.800797
v 0.848714 0.130952 0.816733
v 0.915002 0.000000 0.896414
v 0.775050 0.428571 0.729084
v 0.969844 0.178571 0.964143
v 0.949485 0.166667 0.936255
v 0.970120 0.000000 0.964143
v 0.892571 0.238095 0.868526
v 0.368794 0.000000 0.310757
v 0.973749 0.357143 0.968127
v 0.841995 0.000000 0.808765
v 0.977861 0.107143 0.972112
v 0.984673 0.595238 0.980080
v 0.809618 0.071429 0.768924
v 0.995657 0.107143 0.996016
v 0.892065 0.000000 0.868526
v 0.972347 0.071429 0.968127
v 0.792685 0.238095 0.749004
v 0.966935 0.238095 0.960159
v 0.937377 0.130952 0.924303
v 0.949546 0.107143 0.936255
v 0.511877 0.428571 0.446215
v 0.963426 0.000000 0.956175
v 0.911438 0.202381 0.892430
v 0.927990 0.178571 0.912351
v 0.987776 0.000000 0.984064
v 0.980414 0.178571 0.976096
v 0.922049 0.071429 0.904382
v 0.794815 0.107143 0.752988
v 0.943398 0.107143 0.932271
v 0.966711 0.107143 0.960159
v 0.921018 0.166667 0.904382
v 0.997513 0.095238 0.996016
v 0.919781 0.130952 0.900398
v 0.969350 0.178571 0.964143
v 0.581700 0.000000 0.517928
v 0.462330 0.166667 0.398406
v 0.961421 0.000000 0.952191
v 0.858251 0.000000 0.828685
v 0.893664 0.273810 0.868526
v 0.885939 0.107143 0.860558
v 0.997440 0.000000 0.996016
v 0.766579 0.000000 0.721116
v 0.612125 0.000000 0.549801
v 0.519300 0.000000 0.454183
v 0.993824 0.285714 0.992032
v 0.921183 0.214286 0.904382
v 0.773446 0.000000 0.729084
v 0.931344 0.214286 0.916335
v 0.854849 0.285714 0.824701
v 0.938239 0.166667 0.924303
v 0.620737 0.392857 0.561753
v 0.860630 0.071429 0.828685
v 0.835213 0.142857 0.800797
v 0.878786 0.130952 0.852590
v 0.794184 0.107143 0.752988
v 0.694392 0.095238 0.641434
v 0.983052 0.166667 0.980080
v 0.841779 0.309524 0.808765
v 0.766972 0.642857 0.721116
v 0.726986 0.000000 0.677291
v 0.915556 0.130952 0.896414
v 0.861464 0.273810 0.832669
v 0.921595 0.095238 0.904382
v 0.813473 0.416667 0.772908
v 0.839789 0.273810 0.804781
v 0.743300 0.107143 0.693227
v 0.884660 0.630952 0.860558
v 0.927890 0.250000 0.912351
v 0.810913 0.000000 0.772908
v 0.976981 0.250000 0.972112
v 0.749940 0.071429 0.701195
v 0.766234 0.000000 0.721116
v 0.907853 0.416667 0.888446
v 0.932158 0.130952 0.916335
v 0.998187 0.285714 1.000000
v 0.903487 0.238095 0.880478
v 0.938776 0.000000 0.924303
v 0.783004 0.071429 0.741036
v 0.668335 0.238095 0.609562
v 0.988762 0.166667 0.988048
v 0.965432 0.000000 0.956175
v 0.996210 0.107143 0.996016
v 0.699477 0.071429 0.645418
v 0.970254 0.000000 0.964143
v 0.776151 0.000000 0.733068
v 0.968621 0.071429 0.960159
v 0.673790 0.071429 0.617530
v 0.823632 0.642857 0.784861
v 0.827539 0.250000 0.792829
v 0.271980 0.202381 0.223108
v 0.994902 0.071429 0.996016
v 0.906226 0.000000 0.884462
v 0.791310 0.452381 0.749004
v 0.886231 0.250000 0.860558
v 0.649985 0.071429 0.589641
v 0.467538 0.071429 0.402390
v 0.895070 0.214286 0.872510
v 0.961641 0.000000 0.952191
v 0.890934 0.000000 0.864542
v 0.814857 0.071429 0.776892
v 0.918264 0.000000 0.900398
v 0.938740 0.071429 0.924303
v 0.377750 0.000000 0.318725
v 0.987732 0.107143 0.984064
v 0.543284 0.000000 0.478088
v 0.875231 0.345238 0.848606
v 0.786469 0.000000 0.745020
v 0.990078 0.416667 0.988048
v 0.997630 0.309524 0.996016
v 0.765329 0.166667 0.721116
v 0.961249 0.071429 0.952191
v 0.979980 0.309524 0.976096
v 0.961447 0.107143 0.952191
v 0.874176 0.178571 0.844622
v 0.805296 0.130952 0.764940
v 0.972911 0.000000 0.968127
v 0.854464 0.107143 0.824701
v 0.981621 0.071429 0.976096
v 0.961357 0.000000 0.952191
v 0.806837 0.130952 0.768924
v 0.912649 0.250000 0.892430
v 0.631345 0.202381 0.569721
v 0.937251 0.345238 0.924303
v 0.979333 0.071429 0.976096
v 0.889048 0.345238 0.864542
v 0.852622 0.130952 0.820717
v 0.761413 0.095238 0.713147
v 0.850718 0.095238 0.816733
v 0.937170 0.238095 0.924303
v 0.927856 0.000000 0.912351
v 0.945565 0.000000 0.932271
v 0.867536 0.000000 0.836653
v 0.793189 0.000000 0.752988
v 0.753527 0.000000 0.705179
v 0.723702 0.000000 0.673307
v 0.741599 0.071429 0.693227
v 0.604852 0.095238 0.541833
v 0.852802 0.000000 0.820717
v 0.924313 0.000000 0.908367
v 0.991784 0.000000 0.992032
v 0.349420 0.000000 0.290837
v 0.998825 0.000000 1.000000
v 0.988485 0.000000 0.988048
v 0.622866 0.142857 0.561753
v 0.948178 0.000000 0.936255
v 0.547559 0.095238 0.482072
v 0.929677 0.071429 0.912351
v 0.829958 0.071429 0.792829
v 0.956969 0.130952 0.948207
v 0.570858 0.273810 0.505976
v 0.795232 0.166667 0.752988
v 0.575706 0.309524 0.513944
v 0.904485 0.000000 0.884462
v 0.974866 0.000000 0.968127
v 0.995816 0.250000 0.996016
v 0.996252 0.071429 0.996016
v 0.802707 0.071429 0.760956
v 0.868470 0.309524 0.840637
v 0.875811 0.071429 0.848606
v 0.720327 0.000000 0.669323
v 0.709577 0.095238 0.657371
v 0.199876 0.000000 0.159363
v 0.871719 0.095238 0.844622
v 0.680066 0.071429 0.625498
v 0.847642 0.464286 0.816733
v 0.956577 0.000000 0.948207
v 0.766685 0.107143 0.721116
v 0.915702 0.250000 0.896414
v 0.508184 0.321429 0.442231
v 0.903907 0.071429 0.880478
v 0.753817 0.107143 0.705179
v 0.890600 0.285714 0.864542
v 0.824126 0.166667 0.788845
v 0.656519 0.166667 0.597610
v 0.905517 0.000000 0.884462
v 0.878844 0.321429 0.852590
v 0.934880 0.166667 0.920319
v 0.539302 0.178571 0.474104
v 0.957137 0.309524 0.948207
v 0.933574 0.000000 0.916335
v 0.997619 0.130952 0.996016
v 0.983823 0.238095 0.980080
v 0.603338 0.285714 0.541833
v 0.897179 0.357143 0.872510
v 0.876672 0.095238 0.848606
v 0.836869 0.000000 0.800797
v 0.889493 0.000000 0.864542
v 0.725964 0.142857 0.673307
v 0.958090 0.000000 0.948207
v 0.996737 0.238095 0.996016
v 0.889265 0.071429 0.864542
v 0.646439 0.000000 0.589641
v 0.888880 0.130952 0.864542
v 0.807880 0.107143 0.768924
v 0.820788 0.000000 0.784861
v 0.853391 0.130952 0.820717
v 0.818553 0.250000 0.780876
v 0.872492 0.202381 0.844622
v 0.966070 0.000000 0.960159
v 0.956065 0.202381 0.944223
v 0.962424 0.273810 0.952191
v 0.964883 0.250000 0.956175
v 0.898582 0.357143 0.876494
v 0.779576 0.000000 0.737052
v 0.907656 0.095238 0.888446
v 0.901587 0.095238 0.880478
v 0.926098 0.357143 0.908367
v 0.803564 0.000000 0.764940
v 0.499287 0.107143 0.434263
v 0.805580 0.428571 0.764940
v 0.708963 0.000000 0.657371
v 0.976327 0.285714 0.972112
v 0.777025 0.095238 0.733068
v 0.942843 0.000000 0.928287
v 0.982812 0.095238 0.980080
v 0.806815 0.178571 0.768924
v 0.990198 0.166667 0.988048
v 0.887839 0.000000 0.864542
v 0.890790 0.071429 0.864542
v 0.828346 0.095238 0.792829
v 0.970850 0.130952 0.964143
v 0.943088 0.130952 0.928287
v 0.890537 0.071429 0.864542
v 0.941857 0.000000 0.928287
v 0.714340 0.107143 0.661355
v 0.671075 0.130952 0.613546
v 0.972924 0.000000 0.968127
v 0.971579 0.250000 0.964143
v 0.860269 0.107143 0.828685
v 0.937913 0.107143 0.924303
v 0.998241 0.107143 1.000000
v 0.877388 0.071429 0.848606
v 0.710905 0.000000 0.657371
v 0.923729 0.178571 0.904382
v 0.971587 0.166667 0.964143
v 0.932070 0.857143 0.916335
v 0.931346 0.178571 0.916335
v 0.947541 0.071429 0.936255
v 0.878179 0.130952 0.852590
v 0.876197 0.178571 0.848606
v 0.895678 0.107143 0.872510
v 0.706444 0.285714 0.653386
v 0.899944 0.071429 0.876494
v 0.970912 0.095238 0.964143
v 0.886123 0.107143 0.860558
v 0.958549 0.142857 0.948207
v 0.828958 0.238095 0.792829
v 0.930567 0.142857 0.916335
v 0.938930 0.166667 0.924303
v 0.961480 0.095238 0.952191
v 0.682104 0.250000 0.625498
v 0.891701 0.000000 0.868526
v 0.858983 0.095238 0.828685
v 0.946305 0.142857 0.932271
v 0.916319 0.142857 0.896414
v 0.792372 0.107143 0.749004
v 0.791591 0.178571 0.749004
v 0.985838 0.250000 0.984064
v 0.958709 0.071429 0.948207
v 0.302958 0.071429 0.247012
v 0.943140 0.238095 0.928287
v 0.914276 0.166667 0.896414
v 0.510792 0.071429 0.446215
v 0.985434 0.095238 0.984064
v 0.928181 0.000000 0.912351
v 0.999011 0.214286 1.000000
v 0.997203 0.178571 0.996016
v 0.919667 0.416667 0.900398
v 0.966151 0.238095 0.960159
v 0.810786 0.309524 0.772908
v 0.948308 0.000000 0.936255
v 0.937955 0.071429 0.924303
v 0.602080 0.000000 0.541833
v 0.994209 0.107143 0.992032
v 0.837124 0.095238 0.800797
v 0.939455 0.000000 0.924303
v 0.992845 0.107143 0.992032
v 0.863892 0.345238 0.832669
v 0.545151 0.071429 0.482072
v 0.942552 0.178571 0.928287
v 0.869868 0.000000 0.840637
v 0.706360 0.000000 0.653386
v 0.944196 0.000000 0.932271
v 0.795199 0.250000 0.752988
v 0.937216 0.130952 0.924303
v 0.917726 0.357143 0.900398
v 0.954053 0.107143 0.944223
v 0.810397 0.000000 0.772908
v 0.997738 0.000000 1.000000
v 0.939860 0.071429 0.924303
v 0.873038 0.130952 0.844622
v 0.827366 0.071429 0.792829
v 0.847218 0.071429 0.812749
v 0.820504 0.202381 0.784861
v 0.616373 0.285714 0.553785
v 0.695699 0.000000 0.641434
v 0.981941 0.000000 0.980080
v 0.504983 0.000000 0.442231
v 0.345252 0.000000 0.286853
v 0.827043 0.000000 0.788845
v 0.916402 0.000000 0.896414
v 0.775490 0.107143 0.729084
v 0.851540 0.273810 0.820717
v 0.991510 0.000000 0.992032
v 0.946967 0.071429 0.936255
v 0.806635 0.345238 0.764940
v 0.749001 0.130952 0.701195
v 0.567298 0.000000 0.505976
v 0.856878 0.178571 0.824701
v 0.701402 0.107143 0.649402
v 0.861980 0.130952 0.832669
v 0.820172 0.238095 0.780876
v 0.764517 0.250000 0.717131
v 0.496211 0.273810 0.430279
v 0.949818 0.238095 0.940239
v 0.910233 0.107143 0.888446
v 0.998941 0.071429 1.000000
v 0.659461 0.178571 0.601594
v 0.964694 0.500000 0.956175
v 0.701035 0.071429 0.645418
v 0.658772 0.178571 0.601594
v 0.998476 0.416667 1.000000
v 0.712184 0.071429 0.661355
v 0.959761 0.095238 0.952191
v 0.582259 0.000000 0.517928
v 0.956431 0.250000 0.948207
v 0.983169 0.095238 0.980080
v 0.658486 0.000000 0.601594
v 0.862777 0.107143 0.832669
v 0.793598 0.238095 0.752988
v 0.733729 0.095238 0.685259
v 0.813387 0.000000 0.772908
v 0.858328 0.000000 0.828685
v 0.944914 0.071429 0.932271
v 0.989252 0.107143 0.988048
v 0.799026 0.071429 0.756972
v 0.982182 0.071429 0.980080
v 0.852056 0.000000 0.820717
v 0.968394 0.535714 0.960159
v 0.704178 0.166667 0.649402
v 0.600046 0.130952 0.537849
v 0.926339 0.178571 0.908367
v 0.697545 0.107143 0.645418
v 0.974852 0.107143 0.968127
v 0.998991 0.595238 1.000000
v 0.833370 0.345238 0.796813
v 0.757580 0.238095 0.709163
v 0.869085 0.000000 0.840637
v 0.892013 0.071429 0.868526
v 0.796749 0.357143 0.756972
v 0.933227 0.000000 0.916335
v 0.948816 0.000000 0.936255
v 0.994799 0.428571 0.996016
v 0.990423 0.428571 0.988048
v 0.557190 0.000000 0.494024
v 0.282949 0.000000 0.231076
v 0.461806 0.071429 0.398406
v 0.892089 0.107143 0.868526
v 0.858339 0.166667 0.828685
v 0.919440 0.071429 0.900398
v 0.932144 0.071429 0.916335
v 0.723468 0.071429 0.673307
v 0.970533 0.000000 0.964143
v 0.384224 0.071429 0.322709
v 0.781050 0.107143 0.737052
v 0.994572 0.095238 0.996016
v 0.910944 0.071429 0.892430
v 0.820232 0.250000 0.780876
v 0.965227 0.345238 0.956175
v 0.779431 0.238095 0.737052
v 0.975048 0.285714 0.968127
v 0.928632 0.107143 0.912351
v 0.884615 0.107143 0.860558
v 0.404144 0.142857 0.342629
v 0.973570 0.273810 0.968127
v 0.979939 0.130952 0.976096
v 0.949387 0.107143 0.936255
v 0.859613 0.238095 0.828685
v 0.817972 0.202381 0.780876
v 0.930466 0.000000 0.916335
v 0.962413 0.535714 0.952191
v 0.935698 0.000000 0.920319
v 0.710885 0.071429 0.657371
v 0.807873 0.000000 0.768924
v 0.878438 0.238095 0.852590
v 0.773441 0.130952 0.729084
v 0.678279 0.000000 0.621514
v 0.841942 0.178571 0.808765
v 0.657409 0.178571 0.597610
v 0.887668 0.416667 0.864542
v 0.907184 0.000000 0.884462
v 0.927261 0.130952 0.912351
v 0.453450 0.000000 0.390438
v 0.823166 0.178571 0.784861
v 0.988787 0.107143 0.988048
v 0.930755 0.071429 0.916335
v 0.790829 0.250000 0.749004
v 0.897805 0.071429 0.876494
v 0.995074 0.488095 0.996016
v 0.779390 0.238095 0.737052
v 0.657342 0.250000 0.597610
v 0.775629 0.000000 0.733068
v 0.988311 0.345238 0.988048
v 0.984915 0.000000 0.980080
v 0.818512 0.166667 0.780876
v 0.858462 0.107143 0.828685
v 0.879861 0.130952 0.852590
v 0.917050 0.142857 0.896414
v 0.856656 0.071429 0.824701
v 0.952488 0.214286 0.940239
v 0.848373 0.285714 0.816733
v 0.989504 0.166667 0.988048
v 0.992476 0.000000 0.992032
v 0.948000 0.071429 0.936255
v 0.865817 0.202381 0.836653
v 0.954657 0.095238 0.944223
v 0.605047 0.130952 0.541833
v 0.974089 0.178571 0.968127
v 0.704241 0.071429 0.649402
v 0.997920 0.000000 1.000000
v 0.750509 0.071429 0.701195
v 0.985318 0.428571 0.984064
v 0.961067 0.166667 0.952191
v 0.982189 0.130952 0.980080
v 0.760173 0.107143 0.713147
v 0.908089 0.238095 0.888446
v 0.880161 0.285714 0.852590
v 0.740655 0.202381 0.693227
v 0.834574 0.000000 0.800797
v 0.864470 0.000000 0.836653
v 0.925335 0.071429 0.908367
v 0.852602 0.202381 0.820717
v 0.863799 0.095238 0.832669
v 0.925120 0.000000 0.908367
v 0.735522 0.238095 0.685259
v 0.669661 0.130952 0.613546
v 0.811941 0.000000 0.772908
v 0.362424 0.000000 0.302789
v 0.978871 0.107143 0.976096
v 0.743208 0.250000 0.693227
v 0.752214 0.178571 0.705179
v 0.900353 0.178571 0.876494
v 0.915869 0.178571 0.896414
v 0.635865 0.000000 0.577689
v 0.995390 0.071429 0.996016
v 0.822606 0.428571 0.784861
v 0.953044 0.071429 0.944223
v 0.463474 0.000000 0.398406
v 0.874220 0.071429 0.844622
v 0.970528 0.142857 0.964143
v 0.842542 0.130952 0.808765
v 0.768332 0.202381 0.721116
v 0.992763 0.107143 0.992032
v 0.708626 0.595238 0.657371
v 0.787793 0.428571 0.745020
v 0.238039 0.166667 0.191235
v 0.771960 0.142857 0.725100
v 0.837426 0.107143 0.804781
v 0.964301 0.273810 0.956175
v 0.453697 0.000000 0.390438
v 0.980144 0.273810 0.976096
v 0.950581 0.178571 0.940239
v 0.988059 0.166667 0.984064
v 0.942703 0.214286 0.928287
v 0.933566 0.238095 0.916335
v 0.916635 0.214286 0.896414
v 0.713595 0.178571 0.661355
v 0.919905 0.107143 0.900398
v 0.965938 0.095238 0.960159
v 0.993067 0.202381 0.992032
v 0.970189 0.071429 0.964143
v 0.953197 0.107143 0.944223
v 0.678543 0.000000 0.621514
v 0.809931 0.464286 0.768924
v 0.987753 0.380952 0.984064
v 0.905851 0.166667 0.884462
v 0.854698 0.000000 0.824701
v 0.968643 0.000000 0.960159
v 0.929592 0.166667 0.912351
v 0.938456 0.238095 0.924303
v 0.998460 0.107143 1.000000
v 0.844045 0.238095 0.808765
v 0.819092 0.130952 0.780876
v 0.972079 0.357143 0.964143
v 0.971663 0.166667 0.964143
v 0.875038 0.107143 0.848606
v 0.935925 0.071429 0.920319
v 0.827789 0.071429 0.792829
v 0.969791 0.345238 0.964143
v 0.948265 0.607143 0.936255
v 0.927216 0.107143 0.912351
v 0.803318 0.000000 0.764940
v 0.602778 0.130952 0.541833
v 0.582888 0.178571 0.521912
v 0.921514 0.178571 0.904382
v 0.978775 0.095238 0.976096
v 0.799016 0.130952 0.756972
v 0.770121 0.107143 0.725100
v 0.889234 0.107143 0.864542
v 0.372188 0.000000 0.310757
v 0.799859 0.142857 0.760956
v 0.990783 0.107143 0.988048
v 0.915981 0.250000 0.896414
v 0.949495 0.642857 0.936255
v 0.876835 0.000000 0.848606
v 0.939605 0.071429 0.924303
v 0.708709 0.178571 0.657371
v 0.963794 0.107143 0.956175
v 0.807511 0.380952 0.768924
v 0.994283 0.000000 0.992032
v 0.993855 0.238095 0.992032
v 0.775823 0.107143 0.733068
v 0.748710 0.071429 0.701195
v 0.956101 0.000000 0.944223
v 0.938722 0.214286 0.924303
v 0.971819 0.095238 0.964143
v 0.610163 0.071429 0.549801
v 0.937985 0.178571 0.924303
v 0.696535 0.345238 0.641434
v 0.895370 0.500000 0.872510
v 0.925983 0.071429 0.908367
v 0.622512 0.071429 0.561753
v 0.785741 0.166667 0.741036
v 0.868896 0.238095 0.840637
v 0.855169 0.071429 0.824701
v 0.722358 0.000000 0.669323
v 0.770667 0.392857 0.725100
v 0.854977 0.000000 0.824701
v 0.601325 0.166667 0.537849
v 0.956703 0.416667 0.948207
v 0.864679 0.178571 0.836653
v 0.699345 0.071429 0.645418
v 0.773966 0.000000 0.729084
v 0.973217 0.107143 0.968127
v 0.908864 0.416667 0.888446
v 0.837722 0.166667 0.804781
v 0.928119 0.095238 0.912351
v 0.927699 0.000000 0.912351
v 0.681847 0.000000 0.625498
v 0.835410 0.142857 0.800797
v 0.924134 0.071429 0.908367
v 0.948571 0.107143 0.936255
v 0.834141 0.309524 0.800797
v 0.914847 0.000000 0.896414
v 0.918478 0.130952 0.900398
v 0.881137 0.452381 0.856574
v 0.890044 0.142857 0.864542
v 0.936960 0.142857 0.924303
v 0.574252 0.095238 0.509960
v 0.869364 0.095238 0.840637
v 0.449080 0.321429 0.386454
v 0.994356 0.130952 0.992032
v 0.947242 0.000000 0.936255
v 0.999662 0.107143 1.000000
v 0.933302 0.380952 0.916335
v 0.940427 0.107143 0.928287
v 0.910914 0.095238 0.892430
v 0.703933 0.000000 0.649402
v 0.851375 0.071429 0.820717
v 0.950702 0.000000 0.940239
v 0.993775 0.130952 0.992032
v 0.960350 0.000000 0.952191
v 0.619938 0.357143 0.557769
v 0.904895 0.000000 0.884462
v 0.901526 0.071429 0.880478
v 0.909699 0.095238 0.888446
v 0.948423 0.416667 0.936255
v 0.707102 0.107143 0.653386
v 0.610981 0.000000 0.549801
v 0.860684 0.178571 0.828685
v 0.969242 0.142857 0.964143
v 0.968497 0.142857 0.960159
v 0.724989 0.178571 0.673307
v 0.821503 0.000000 0.784861
v 0.833943 0.130952 0.796813
v 0.808637 0.178571 0.768924
v 0.896354 0.071429 0.872510
v 0.858520 0.000000 0.828685
v 0.957093 0.428571 0.948207
v 0.969041 0.178571 0.960159
v 0.777572 0.166667 0.733068
v 0.948811 0.071429 0.936255
v 0.901193 0.273810 0.880478
v 0.993200 0.238095 0.992032
v 0.593967 0.178571 0.533865
v 0.807751 0.095238 0.768924
v 0.858610 0.071429 0.828685
v 0.947694 0.000000 0.936255
v 0.997360 0.095238 0.996016
v 0.837061 0.130952 0.800797
v 0.753366 0.000000 0.705179
v 0.592568 0.071429 0.529880
v 0.959007 0.107143 0.948207
v 0.983263 0.107143 0.980080
v 0.966260 0.130952 0.960159
v 0.868596 0.000000 0.840637
v 0.968508 0.345238 0.960159
v 0.511017 0.000000 0.446215
v 0.943406 0.142857 0.932271
v 0.925553 0.357143 0.908367
v 0.664107 0.357143 0.605578
v 0.922052 0.178571 0.904382
v 0.777842 0.107143 0.733068
v 0.831234 0.178571 0.796813
v 0.936466 0.238095 0.920319
v 0.981729 0.607143 0.976096
v 0.929675 0.238095 0.912351
v 0.982511 0.095238 0.980080
v 0.735630 0.166667 0.685259
v 0.501971 0.345238 0.438247
v 0.994454 0.238095 0.992032
v 0.911545 0.321429 0.892430
v 0.191409 0.107143 0.151394
v 0.956848 0.071429 0.948207
v 0.821012 0.285714 0.784861
v 0.945766 0.071429 0.932271
v 0.976898 0.214286 0.972112
v 0.814757 0.642857 0.776892
v 0.924745 0.238095 0.908367
v 0.984227 0.071429 0.980080
v 0.882991 0.166667 0.856574
v 0.956678 0.285714 0.948207
v 0.936689 0.000000 0.920319
v 0.886713 0.345238 0.860558
v 0.865135 0.095238 0.836653
v 0.674614 0.000000 0.617530
v 0.889443 0.095238 0.864542
v 0.942961 0.000000 0.928287
v 0.952416 0.000000 0.940239
v 0.943818 0.273810 0.932271
v 0.613920 0.071429 0.553785
v 0.999101 0.178571 1.000000
v 0.926818 0.357143 0.908367
v 0.938206 0.071429 0.924303
v 0.689354 0.071429 0.633466
v 0.857757 0.071429 0.828685
v 0.948132 0.095238 0.936255
v 0.795582 0.107143 0.752988
v 0.707017 0.000000 0.653386
v 0.773469 0.178571 0.729084
v 0.391553 0.166667 0.330677
v 0.832149 0.130952 0.796813
v 0.964931 0.178571 0.956175
v 0.995790 0.166667 0.996016
v 0.767025 0.000000 0.721116
v 0.900555 0.250000 0.876494
v 0.448044 0.202381 0.386454
v 0.718674 0.166667 0.665339
v 0.788106 0.452381 0.745020
v 0.906883 0.000000 0.884462
v 0.961154 0.071429 0.952191
v 0.849612 0.178571 0.816733
v 0.818377 0.071429 0.780876
v 0.627274 0.071429 0.565737
v 0.985109 0.250000 0.984064
v 0.809023 0.000000 0.768924
v 0.649057 0.166667 0.589641
v 0.580774 0.071429 0.517928
v 0.764577 0.273810 0.717131
v 0.651434 0.071429 0.593625
v 0.686538 0.095238 0.629482
v 0.900982 0.166667 0.880478
v 0.824273 0.000000 0.788845
v 0.917834 0.000000 0.900398
v 0.884006 0.285714 0.856574
v 0.584529 0.130952 0.521912
v 0.899725 0.178571 0.876494
v 0.989408 0.488095 0.988048
v 0.987166 0.071429 0.984064
v 0.623595 0.107143 0.561753
v 0.966224 0.428571 0.960159
v 0.889242 0.000000 0.864542
v 0.877758 0.000000 0.852590
v 0.430372 0.380952 0.366534
v 0.780646 0.000000 0.737052
v 0.742129 0.000000 0.693227
v 0.773092 0.000000 0.729084
v 0.890299 0.130952 0.864542
v 0.855917 0.000000 0.824701
v 0.631034 0.107143 0.569721
v 0.866572 0.202381 0.836653
v 0.943812 0.166667 0.932271
v 0.769277 0.238095 0.725100
v 0.945086 0.523810 0.932271
v 0.711411 0.071429 0.657371
v 0.915498 0.000000 0.896414
v 0.898102 0.464286 0.876494
v 0.662562 0.250000 0.605578
v 0.970139 0.702381 0.964143
v 0.905228 0.285714 0.884462
v 0.721666 0.357143 0.669323
v 0.937000 0.071429 0.924303
v 0.387018 0.107143 0.326693
v 0.863398 0.202381 0.832669
v 0.931889 0.000000 0.916335
v 0.896061 0.095238 0.872510
v 0.898040 0.392857 0.876494
v 0.968872 0.000000 0.960159
v 0.903241 0.285714 0.880478
v 0.857507 0.000000 0.824701
v 0.988813 0.285714 0.988048
v 0.948303 0.321429 0.936255
v 0.984110 0.130952 0.980080
v 0.664365 0.130952 0.605578
v 0.905845 0.273810 0.884462
v 0.596056 0.000000 0.533865
v 0.898467 0.071429 0.876494
v 0.990105 0.250000 0.988048
v 0.924128 0.273810 0.908367
v 0.860183 0.071429 0.828685
v 0.911889 0.107143 0.892430
v 0.994700 0.000000 0.996016
v 0.911172 0.000000 0.892430
v 0.930207 0.107143 0.912351
v 0.952028 0.321429 0.940239
v 0.968653 0.250000 0.960159
v 0.886351 0.000000 0.860558
v 0.992976 0.107143 0.992032
v 0.660429 0.000000 0.601594
v 0.972840 0.095238 0.968127
v 0.700126 0.000000 0.645418
v 0.894772 0.000000 0.872510
v 0.933903 0.130952 0.920319
v 0.555719 0.000000 0.494024
v 0.600208 0.178571 0.537849
v 0.679990 0.000000 0.625498
v 0.978925 0.071429 0.976096
v 0.869373 0.357143 0.840637
v 0.800728 0.535714 0.760956
v 0.960544 0.000000 0.952191
v 0.971063 0.000000 0.964143
v 0.982865 0.130952 0.980080
v 0.992584 0.000000 0.992032
v 0.788733 0.130952 0.745020
v 0.617432 0.166667 0.557769
v 0.973473 0.238095 0.968127
v 0.786427 0.142857 0.745020
v 0.842590 0.166667 0.808765
v 0.968375 0.071429 0.960159
v 0.547853 0.142857 0.486056
v 0.903687 0.392857 0.880478
v 0.950058 0.071429 0.940239
v 0.751473 0.178571 0.705179
v 0.920683 0.238095 0.904382
v 0.912878 0.273810 0.892430
v 0.897248 0.202381 0.872510
v 0.978306 0.250000 0.972112
v 0.214134 0.000000 0.171315
v 0.790602 0.202381 0.749004
v 0.913457 0.238095 0.892430
v 0.948183 0.071429 0.936255
v 0.990580 0.238095 0.988048
v 0.909127 0.071429 0.888446
v 0.753732 0.107143 0.705179
v 0.924613 0.071429 0.908367
v 0.980711 0.095238 0.976096
v 0.954922 0.000000 0.944223
v 0.759564 0.488095 0.713147
v 0.928040 0.000000 0.912351
v 0.584269 0.142857 0.521912
v 0.954598 0.250000 0.944223
v 0.809088 0.071429 0.768924
v 0.845921 0.142857 0.812749
v 0.977916 0.000000 0.972112
v 0.863460 0.238095 0.832669
v 0.984180 0.357143 0.980080
v 0.901885 0.000000 0.880478
v 0.811220 0.500000 0.772908
v 0.860653 0.000000 0.828685
v 0.950275 0.000000 0.940239
v 0.950976 0.000000 0.940239
v 0.861991 0.071429 0.832669
v 0.927484 0.130952 0.912351
v 0.926380 0.238095 0.908367
v 0.897058 0.428571 0.872510
v 0.895545 0.202381 0.872510
v 0.990716 0.130952 0.988048
v 0.980104 0.345238 0.976096
v 0.675667 0.000000 0.617530
v 0.749164 0.107143 0.701195
v 0.958947 0.000000 0.948207
v 0.831754 0.166667 0.796813
v 0.986784 0.202381 0.984064
v 0.975464 0.250000 0.972112
v 0.951319 0.238095 0.940239
v 0.868157 0.535714 0.840637
v 0.766659 0.107143 0.721116
v 0.982580 0.416667 0.980080
v 0.907821 0.464286 0.888446
v 0.606858 0.000000 0.545817
v 0.857612 0.000000 0.824701
v 0.938754 0.273810 0.924303
v 0.945712 0.178571 0.932271
v 0.909579 0.071429 0.888446
v 0.566522 0.178571 0.501992
v 0.762597 0.130952 0.717131
v 0.968767 0.000000 0.960159
v 0.949687 0.095238 0.936255
v 0.478828 0.130952 0.414343
v 0.952219 0.523810 0.940239
v 0.978211 0.130952 0.972112
v 0.995505 0.595238 0.996016
v 0.991976 0.130952 0.992032
v 0.765198 0.202381 0.721116
v 0.737107 0.071429 0.689243
v 0.334406 0.130952 0.278884
v 0.751799 0.071429 0.705179
v 0.944396 0.000000 0.932271
v 0.920657 0.000000 0.904382
v 0.861234 0.178571 0.832669
v 0.990734 0.273810 0.988048
v 0.996476 0.071429 0.996016
v 0.790959 0.130952 0.749004
v 0.748520 0.523810 0.701195
v 0.891780 0.464286 0.868526
v 0.994988 0.000000 0.996016
v 0.965842 0.178571 0.956175
v 0.754602 0.238095 0.709163
v 0.986776 0.238095 0.984064
v 0.625410 0.000000 0.565737
v 0.779427 0.000000 0.737052
v 0.870011 0.107143 0.840637
v 0.920820 0.000000 0.904382
v 0.807638 0.166667 0.768924
v 0.927157 0.166667 0.912351
v 0.847288 0.285714 0.812749
v 0.862912 0.357143 0.832669
v 0.963264 0.071429 0.956175
v 0.762201 0.130952 0.717131
v 0.851939 0.238095 0.820717
v 0.937510 0.380952 0.924303
v 0.730797 0.166667 0.681275
v 0.862597 0.285714 0.832669
v 0.983095 0.000000 0.980080
v 0.886775 0.130952 0.860558
v 0.992691 0.214286 0.992032
v 0.743659 0.000000 0.693227
v 0.755925 0.178571 0.709163
v 0.904339 0.273810 0.884462
v 0.885984 0.107143 0.860558
v 0.901822 0.107143 0.880478
v 0.989248 0.166667 0.988048
v 0.910962 0.071429 0.892430
v 0.865982 0.000000 0.836653
v 0.614730 0.107143 0.553785
v 0.934396 0.202381 0.920319
v 0.764177 0.071429 0.717131
v 0.902322 0.095238 0.880478
v 0.900736 0.178571 0.876494
v 0.963736 0.000000 0.956175
v 0.977702 0.273810 0.972112
v 0.746343 0.202381 0.697211
v 0.910683 0.130952 0.888446
v 0.999801 0.273810 1.000000
v 0.914753 0.000000 0.896414
v 0.945820 0.202381 0.932271
v 0.932330 0.238095 0.916335
v 0.944186 0.000000 0.932271
v 0.971345 0.095238 0.964143
v 0.752859 0.095238 0.705179
v 0.706093 0.071429 0.653386
v 0.545661 0.000000 0.482072
v 0.887039 0.107143 0.860558
v 0.781454 0.392857 0.737052
v 0.741737 0.000000 0.693227
v 0.973671 0.000000 0.968127
v 0.826846 0.000000 0.788845
v 0.980352 0.107143 0.976096
v 0.545887 0.000000 0.482072
v 0.765306 0.095238 0.721116
v 0.988717 0.428571 0.988048
v 0.961423 0.285714 0.952191
v 0.990639 0.107143 0.988048
v 0.955145 0.273810 0.944223
v 0.977531 0.178571 0.972112
v 0.829365 0.071429 0.792829
v 0.953228 0.238095 0.944223
v 0.951596 0.130952 0.940239
v 0.487936 0.273810 0.422311
v 0.659144 0.107143 0.601594
v 0.904368 0.107143 0.884462
v 0.669447 0.178571 0.613546
v 0.379845 0.000000 0.318725
v 0.656654 0.130952 0.597610
v 0.991490 0.178571 0.992032
v 0.884693 0.107143 0.860558
v 0.980690 0.000000 0.976096
v 0.808251 0.666667 0.768924
v 0.478531 0.142857 0.414343
v 0.851154 0.130952 0.820717
v 0.905259 0.000000 0.884462
v 0.614749 0.000000 0.553785
v 0.896183 0.250000 0.872510
v 0.853674 0.000000 0.820717
v 0.853146 0.000000 0.820717
v 0.889245 0.273810 0.864542
v 0.885299 0.285714 0.860558
v 0.989075 0.166667 0.988048
v 0.941635 0.000000 0.928287
v 0.997457 0.238095 0.996016
v 0.982813 0.000000 0.980080
v 0.933322 0.107143 0.916335
v 0.985735 0.000000 0.984064
v 0.690482 0.000000 0.637450
v 0.982209 0.071429 0.980080
v 0.866970 0.000000 0.836653
v 0.739852 0.071429 0.689243
v 0.754192 0.107143 0.705179
v 0.955133 0.380952 0.944223
v 0.942861 0.130952 0.928287
v 0.796777 0.000000 0.756972
v 0.820395 0.238095 0.784861
v 0.873829 0.071429 0.844622
v 0.864895 0.000000 0.836653
v 0.629772 0.107143 0.569721
v 0.990389 0.238095 0.988048
v 0.953355 0.392857 0.944223
v 0.997987 0.000000 1.000000
v 0.596447 0.178571 0.533865
v 0.752370 0.095238 0.705179
v 0.862910 0.095238 0.832669
v 0.963973 0.095238 0.956175
v 0.777400 0.309524 0.733068
v 0.950501 0.142857 0.940239
v 0.930338 0.071429 0.916335
v 0.705179 0.107143 0.653386
v 0.964761 0.000000 0.956175
v 0.529419 0.357143 0.466135
v 0.615082 0.130952 0.553785
v 0.794983 0.178571 0.752988
v 0.894191 0.238095 0.868526
v 0.928683 0.071429 0.912351
v 0.943574 0.071429 0.932271
v 0.855342 0.285714 0.824701
v 0.716934 0.428571 0.665339
v 0.883134 0.166667 0.856574
v 0.751630 0.702381 0.705179
v 0.973800 0.071429 0.968127
v 0.775570 0.107143 0.729084
v 0.784159 0.238095 0.741036
v 0.957305 0.345238 0.948207
v 0.956154 0.523810 0.944223
v 0.967943 0.130952 0.960159
v 0.784624 0.000000 0.741036
v 0.811019 0.238095 0.772908
v 0.723709 0.285714 0.673307
v 0.766970 0.285714 0.721116
v 0.997721 0.000000 1.000000
v 0.981084 0.285714 0.976096
v 0.928862 0.464286 0.912351
v 0.649578 0.071429 0.589641
v 0.916373 0.071429 0.896414
v 0.923987 0.202381 0.908367
v 0.891834 0.107143 0.868526
v 0.942295 0.071429 0.928287
v 0.992885 0.166667 0.992032
v 0.674352 0.321429 0.617530
v 0.910318 0.107143 0.888446
v 0.820481 0.273810 0.784861
v 0.615063 0.000000 0.553785
v 0.703790 0.107143 0.649402
v 0.511493 0.095238 0.446215
v 0.847256 0.130952 0.812749
v 0.534406 0.178571 0.470120
v 0.866610 0.000000 0.836653
v 0.961018 0.095238 0.952191
v 0.984239 0.000000 0.980080
v 0.880402 0.095238 0.852590
v 0.396705 0.095238 0.334661
v 0.916166 0.178571 0.896414
v 0.877165 0.238095 0.848606
v 0.979893 0.071429 0.976096
v 0.866820 0.000000 0.836653
v 0.895144 0.130952 0.872510
v 0.900768 0.488095 0.876494
v 0.780211 0.107143 0.737052
v 0.902991 0.000000 0.880478
v 0.964516 0.130952 0.956175
v 0.555006 0.071429 0.490040
v 0.819711 0.000000 0.780876
v 0.870217 0.273810 0.840637
v 0.990031 0.535714 0.988048
v 0.646140 0.000000 0.585657
v 0.761525 0.130952 0.713147
v 0.857859 0.250000 0.828685
v 0.779986 0.464286 0.737052
v 0.901624 0.107143 0.880478
v 0.766599 0.107143 0.721116
v 0.723748 0.000000 0.673307
v 0.978885 0.000000 0.976096
v 0.954135 0.285714 0.944223
v 0.900694 0.107143 0.876494
v 0.880138 0.107143 0.852590
v 0.985685 0.071429 0.984064
v 0.912086 0.345238 0.892430
v 0.762442 0.107143 0.717131
v 0.840307 0.000000 0.804781
v 0.951948 0.107143 0.940239
v 0.959019 0.095238 0.948207
v 0.970609 0.071429 0.964143
v 0.377083 0.107143 0.318725
v 0.951991 0.071429 0.940239
v 0.984240 0.142857 0.980080
v 0.884386 0.130952 0.860558
v 0.944443 0.107143 0.932271
v 0.866192 0.488095 0.836653
v 0.578832 0.000000 0.517928
v 0.959301 0.238095 0.948207
v 0.995961 0.214286 0.996016
v 0.877763 0.071429 0.852590
v 0.943966 0.107143 0.932271
v 0.927557 0.285714 0.912351
v 0.770652 0.202381 0.725100
v 0.951793 0.214286 0.940239
v 0.992334 0.523810 0.992032
v 0.970084 0.000000 0.964143
v 0.930012 0.000000 0.912351
v 0.990584 0.071429 0.988048
v 0.948329 0.107143 0.936255
v 0.719444 0.428571 0.669323
v 0.914633 0.000000 0.896414
v 0.784390 0.071429 0.741036
v 0.978611 0.321429 0.972112
v 0.966137 0.202381 0.960159
v 0.971647 0.202381 0.964143
v 0.928787 0.095238 0.912351
v 0.788114 0.071429 0.745020
v 0.799232 0.095238 0.756972
v 0.993391 0.130952 0.992032
v 0.959047 0.107143 0.948207
v 0.960273 0.130952 0.952191
v 0.959201 0.416667 0.948207
v 0.912773 0.142857 0.892430
v 0.929908 0.000000 0.912351
v 0.565044 0.250000 0.501992
v 0.958406 0.285714 0.948207
v 0.950157 0.285714 0.940239
v 0.756424 0.285714 0.709163
v 0.791579 0.000000 0.749004
v 0.883040 0.130952 0.856574
v 0.930373 0.178571 0.916335
v 0.955763 0.107143 0.944223
v 0.992550 0.071429 0.992032
v 0.815256 0.000000 0.776892
v 0.914487 0.178571 0.896414
v 0.987838 0.000000 0.984064
v 0.738560 0.071429 0.689243
v 0.671183 0.071429 0.613546
v 0.748879 0.142857 0.701195
v 0.975062 0.178571 0.968127
v 0.912393 0.202381 0.892430
v 0.987445 0.202381 0.984064
v 0.929744 0.071429 0.912351
v 0.770796 0.107143 0.725100
v 0.853446 0.000000 0.820717
v 0.795266 0.000000 0.752988
v 0.819053 0.238095 0.780876
v 0.688191 0.630952 0.633466
v 0.545298 0.107143 0.482072
v 0.980587 0.130952 0.976096
v 0.960147 0.464286 0.952191
v 0.978641 0.071429 0.976096
v 0.967781 0.000000 0.960159
v 0.804899 0.107143 0.764940
v 0.834792 0.273810 0.800797
v 0.821442 0.178571 0.784861
v 0.504351 0.142857 0.438247
v 0.761839 0.166667 0.717131
v 0.864502 0.000000 0.836653
v 0.999486 0.095238 1.000000
v 0.711469 0.000000 0.657371
v 0.817937 0.250000 0.780876
v 0.715466 0.071429 0.661355
v 0.803021 0.166667 0.760956
v 0.866914 0.095238 0.836653
v 0.970576 0.285714 0.964143
v 0.742152 0.071429 0.693227
v 0.795794 0.000000 0.752988
v 0.742288 0.142857 0.693227
v 0.902875 0.666667 0.880478
v 0.811910 0.238095 0.772908
v 0.967421 0.166667 0.960159
v 0.958436 0.107143 0.948207
v 0.999909 0.107143 1.000000
v 0.779424 0.000000 0.737052
v 0.936557 0.142857 0.920319
v 0.811892 0.095238 0.772908
v 0.519721 0.000000 0.454183
v 0.000000 0.000000 0.000000
v 0.908756 0.000000 0.888446
v 0.916871 0.345238 0.896414
v 0.675126 0.071429 0.617530
v 0.165984 0.107143 0.131474
v 0.942896 0.285714 0.928287
v 0.895898 0.428571 0.872510
v 0.755450 0.273810 0.709163
v 0.114343 0.166667 0.087649
v 0.907854 0.107143 0.888446
v 0.706195 0.071429 0.653386
v 0.844351 0.107143 0.812749
v 0.956150 0.178571 0.944223
v 0.985137 0.666667 0.984064
v 0.946950 0.238095 0.936255
v 0.870622 0.392857 0.840637
v 0.551882 0.000000 0.490040
v 0.422184 0.214286 0.358566
v 0.880380 0.166667 0.852590
v 0.843888 0.071429 0.808765
v 0.712632 0.142857 0.661355
v 0.917205 0.000000 0.896414
v 0.782186 0.000000 0.737052
v 0.630347 0.130952 0.569721
v 0.998615 0.142857 1.000000
v 0.837167 0.000000 0.800797
v 0.885233 0.000000 0.860558
v 0.981872 0.130952 0.980080
v 0.905048 0.000000 0.884462
v 0.846334 0.000000 0.812749
v 0.830763 0.130952 0.796813
v 0.684213 0.285714 0.629482
v 0.947192 0.095238 0.936255
v 0.932212 0.000000 0.916335
v 0.900450 0.071429 0.876494
v 0.477113 0.000000 0.414343
v 0.913972 0.000000 0.892430
v 0.905688 0.000000 0.884462
v 0.910455 0.000000 0.888446
v 0.983885 0.095238 0.980080
v 0.961551 0.071429 0.952191
v 0.581999 0.095238 0.517928
v 0.831326 0.178571 0.796813
v 0.979186 0.357143 0.976096
v 0.785148 0.071429 0.741036
v 0.798956 0.107143 0.756972
v 0.714711 0.535714 0.661355
v 0.946348 0.250000 0.932271
v 0.838699 0.000000 0.804781
v 0.795219 0.000000 0.752988
v 0.968349 0.178571 0.960159
v 0.856673 0.107143 0.824701
v 0.726652 0.095238 0.677291
v 0.952792 0.000000 0.940239
v 0.625794 0.357143 0.565737
v 0.968078 0.107143 0.960159
v 0.777903 0.000000 0.733068
v 0.730607 0.202381 0.681275
v 0.916811 0.238095 0.896414
v 0.941653 0.178571 0.928287
v 0.952537 0.107143 0.940239
v 0.932103 0.178571 0.916335
v 0.972164 0.357143 0.964143
v 0.835651 0.214286 0.800797
v 0.960966 0.250000 0.952191
v 0.720787 0.000000 0.669323
v 0.922331 0.107143 0.904382
v 0.880308 0.345238 0.852590
v 0.976468 0.238095 0.972112
v 0.931902 0.392857 0.916335
v 0.813714 0.071429 0.776892
v 0.920470 0.345238 0.900398
v 0.966364 0.095238 0.960159
v 0.981713 0.166667 0.976096
v 0.946211 0.523810 0.932271
v 0.978029 0.178571 0.972112
v 0.990283 0.000000 0.988048
v 0.685629 0.000000 0.629482
v 0.989973 0.000000 0.988048
v 0.829558 0.130952 0.792829
v 0.974384 0.107143 0.968127
v 0.904453 0.273810 0.884462
v 0.923836 0.071429 0.908367
v 0.995230 0.416667 0.996016
v 0.806172 0.178571 0.764940
v 0.934492 0.107143 0.920319
v 0.944272 0.071429 0.932271
v 0.783635 0.178571 0.741036
v 0.924318 0.166667 0.908367
v 0.988068 0.071429 0.984064
v 0.798050 0.130952 0.756972
v 0.948865 0.000000 0.936255
v 0.823327 0.000000 0.784861
v 0.902900 0.142857 0.880478
v 0.996164 0.130952 0.996016
v 0.512880 0.071429 0.450199
v 0.880086 0.238095 0.852590
v 0.993971 0.238095 0.992032
v 0.498893 0.071429 0.434263
v 0.520523 0.166667 0.458167
v 0.406261 0.214286 0.342629
v 0.901742 0.345238 0.880478
v 0.731424 0.107143 0.681275
v 0.752841 0.107143 0.705179
v 0.874714 0.000000 0.848606
v 0.976389 0.095238 0.972112
v 0.898751 0.071429 0.876494
v 0.791886 0.095238 0.749004
v 0.951473 0.107143 0.940239
v 0.757189 0.130952 0.709163
v 0.910577 0.107143 0.888446
v 0.729263 0.464286 0.677291
v 0.839987 0.107143 0.804781
v 0.923028 0.071429 0.904382
v 0.981980 0.202381 0.980080
v 0.766663 0.214286 0.721116
v 0.915329 0.071429 0.896414
v 0.566191 0.178571 0.501992
v 0.839185 0.000000 0.804781
v 0.662483 0.202381 0.605578
v 0.530861 0.250000 0.466135
v 0.837835 0.000000 0.804781
v 0.986411 0.428571 0.984064
v 0.469758 0.000000 0.406375
v 0.912549 0.107143 0.892430
v 0.727292 0.166667 0.677291
v 0.781512 0.285714 0.737052
v 0.849346 0.071429 0.816733
v 0.883244 0.000000 0.856574
v 0.957334 0.250000 0.948207
v 0.602826 0.178571 0.541833
v 0.843422 0.071429 0.808765
v 0.985535 0.095238 0.984064
v 0.843219 0.380952 0.808765
v 0.882917 0.178571 0.856574
v 0.858077 0.071429 0.828685
v 0.918998 0.000000 0.900398
v 0.987824 0.071429 0.984064
v 0.643891 0.000000 0.585657
v 0.943331 0.071429 0.932271
v 0.760429 0.250000 0.713147
v 0.979071 0.000000 0.976096
v 0.987318 0.071429 0.984064
v 0.961522 0.071429 0.952191
v 0.934048 0.238095 0.920319
v 0.962452 0.428571 0.952191
v 0.726366 0.166667 0.677291
v 0.900703 0.107143 0.876494
v 0.909681 0.000000 0.888446
v 0.494331 0.000000 0.430279
v 0.967518 0.130952 0.960159
v 0.940846 0.392857 0.928287
v 0.579648 0.166667 0.517928
v 0.603774 0.214286 0.541833
v 0.937694 0.130952 0.924303
v 0.969834 0.000000 0.964143
v 0.990864 0.000000 0.988048
v 0.778960 0.321429 0.733068
v 0.604034 0.071429 0.541833
v 0.778861 0.416667 0.733068
v 0.901787 0.202381 0.880478
v 0.764830 0.166667 0.717131
v 0.840173 0.285714 0.804781
v 0.975553 0.428571 0.972112
v 0.933385 0.416667 0.916335
v 0.827015 0.178571 0.788845
v 0.972444 0.166667 0.968127
v 0.868224 0.000000 0.840637
v 0.920937 0.130952 0.904382
v 0.942398 0.178571 0.928287
v 0.932311 0.000000 0.916335
v 0.816939 0.071429 0.776892
v 0.555144 0.000000 0.490040
v 0.997596 0.107143 0.996016
v 0.547606 0.178571 0.482072
v 0.923333 0.166667 0.904382
v 0.978430 0.107143 0.972112
v 0.932515 0.595238 0.916335
v 0.979420 0.380952 0.976096
v 0.986908 0.107143 0.984064
v 0.989624 0.785714 0.988048
v 0.914373 0.345238 0.896414
v 0.814446 0.285714 0.776892
v 0.658950 0.071429 0.601594
v 0.980584 0.071429 0.976096
v 0.934439 0.238095 0.920319
v 0.998969 0.452381 1.000000
v 0.974273 0.095238 0.968127
v 0.951952 0.095238 0.940239
v 0.845459 0.309524 0.812749
v 0.911249 0.178571 0.892430
v 0.985322 0.166667 0.984064
v 0.847702 0.095238 0.816733
v 0.518211 0.166667 0.454183
v 0.794989 0.000000 0.752988
v 0.999753 0.178571 1.000000
v 0.567098 0.273810 0.505976
v 0.880728 0.000000 0.852590
v 0.921010 0.000000 0.904382
v 0.968371 0.000000 0.960159
v 0.625243 0.000000 0.565737
v 0.275071 0.071429 0.223108
v 0.978466 0.285714 0.972112
v 0.931912 0.142857 0.916335
v 0.945135 0.309524 0.932271
v 0.984760 0.107143 0.980080
v 0.937627 0.000000 0.924303
v 0.907931 0.523810 0.888446
v 0.992998 0.107143 0.992032
v 0.789098 0.095238 0.745020
v 0.894252 0.071429 0.868526
v 0.991380 0.166667 0.992032
v 0.930411 0.428571 0.916335
v 0.999291 0.214286 1.000000
v 0.948576 0.130952 0.936255
v 0.842226 0.107143 0.808765
v 0.994064 0.130952 0.992032
v 0.885804 0.202381 0.860558
v 0.965484 0.095238 0.956175
v 0.793934 0.130952 0.752988
v 0.740145 0.142857 0.689243
v 0.581224 0.214286 0.517928
v 0.886267 0.107143 0.860558
v 0.670232 0.130952 0.613546
v 0.576537 0.000000 0.513944
v 0.972450 0.166667 0.968127
v 0.906989 0.071429 0.884462
v 0.583599 0.107143 0.521912
v 0.831174 0.071429 0.796813
v 0.834109 0.000000 0.800797
v 0.582251 0.166667 0.517928
v 0.660336 0.000000 0.601594
v 0.762726 0.285714 0.717131
v 0.771018 0.095238 0.725100
v 0.907225 0.071429 0.884462
v 0.816141 0.000000 0.776892
v 0.796464 0.095238 0.756972
v 0.940987 0.166667 0.928287
v 0.844930 0.000000 0.812749
v 0.707961 0.000000 0.653386
v 0.631533 0.345238 0.573705
v 0.991943 0.095238 0.992032
v 0.730968 0.166667 0.681275
v 0.488506 0.000000 0.422311
v 0.898005 0.071429 0.876494
v 0.977699 0.071429 0.972112
v 0.408777 0.000000 0.346614
v 0.314472 0.202381 0.258964
v 0.761295 0.071429 0.713147
v 0.714725 0.095238 0.661355
v 0.898321 0.202381 0.876494
v 0.827066 0.285714 0.788845
v 0.942680 0.250000 0.928287
v 0.893232 0.285714 0.868526
v 0.976401 0.345238 0.972112
v 0.945685 0.107143 0.932271
v 0.940330 0.107143 0.928287
v 0.974935 0.345238 0.968127
v 0.775151 0.071429 0.729084
v 0.949962 0.000000 0.940239
v 0.875547 0.107143 0.848606
v 0.904157 0.488095 0.880478
v 0.792212 0.071429 0.749004
v 0.761265 0.523810 0.713147
v 0.837184 0.107143 0.800797
v 0.901998 0.142857 0.880478
v 0.960855 0.166667 0.952191
v 0.915903 0.130952 0.896414
v 0.834422 0.142857 0.800797
v 0.974493 0.107143 0.968127
v 0.882683 0.095238 0.856574
v 0.914296 0.238095 0.896414
v 0.905075 0.238095 0.884462
v 0.649975 0.285714 0.589641
v 0.851862 0.071429 0.820717
v 0.962548 0.000000 0.952191
v 0.936490 0.214286 0.920319
v 0.325241 0.095238 0.270916
v 0.953436 0.000000 0.944223
v 0.923948 0.071429 0.908367
v 0.608395 0.202381 0.545817
v 0.793238 0.285714 0.752988
v 0.968109 0.202381 0.960159
v 0.618171 0.107143 0.557769
v 0.977323 0.285714 0.972112
v 0.931222 0.273810 0.916335
v 0.634864 0.000000 0.573705
v 0.809101 0.178571 0.768924
v 0.790918 0.071429 0.749004
v 0.656014 0.071429 0.597610
v 0.866322 0.238095 0.836653
v 0.935192 0.000000 0.920319
v 0.861852 0.000000 0.832669
v 0.932621 0.000000 0.916335
v 0.545958 0.130952 0.482072
v 0.820371 0.178571 0.780876
v 0.530569 0.452381 0.466135
v 0.956637 0.000000 0.948207
v 0.827138 0.107143 0.788845
v 0.976048 0.000000 0.972112
v 0.981860 0.238095 0.980080
v 0.937108 0.107143 0.924303
v 0.964307 0.071429 0.956175
v 0.999159 0.130952 1.000000
v 0.989838 0.285714 0.988048
v 0.983752 0.238095 0.980080
v 0.971640 0.821429 0.964143
v 0.954002 0.273810 0.944223
v 0.679837 0.202381 0.625498
v 0.914368 0.595238 0.896414
v 0.974404 0.345238 0.968127
v 0.908880 0.095238 0.888446
v 0.935380 0.416667 0.920319
v 0.834771 0.107143 0.800797
v 0.919337 0.095238 0.900398
v 0.564549 0.071429 0.501992
v 0.920060 0.071429 0.900398
v 0.863162 0.464286 0.832669
v 0.964772 0.095238 0.956175
v 0.979203 0.285714 0.976096
v 0.963724 0.000000 0.956175
v 0.997354 0.107143 0.996016
v 1.000000 0.095238 1.000000
v 0.947263 0.000000 0.936255
v 0.765651 0.000000 0.721116
v 0.976449 0.238095 0.972112
v 0.951306 0.178571 0.940239
v 0.959362 0.071429 0.948207
v 0.943602 0.309524 0.932271
v 0.747559 0.000000 0.701195
v 0.686912 0.071429 0.633466
v 0.984801 0.000000 0.980080
v 0.964887 0.000000 0.956175
v 0.806283 0.000000 0.764940
v 0.936722 0.071429 0.920319
v 0.914650 0.238095 0.896414
v 0.908181 0.071429 0.888446
v 0.940169 0.095238 0.928287
v 0.972528 0.214286 0.968127
v 0.753194 0.000000 0.705179
v 0.422470 0.214286 0.358566
v 0.596486 0.142857 0.533865
v 0.952316 0.238095 0.940239
v 0.777999 0.107143 0.733068
v 0.531225 0.000000 0.466135
v 0.792817 0.202381 0.749004
v 0.791548 0.071429 0.749004
v 0.968731 0.500000 0.960159
v 0.691165 0.166667 0.637450
v 0.980107 0.000000 0.976096
v 0.952133 0.071429 0.940239
v 0.583902 0.107143 0.521912
v 0.749622 0.000000 0.701195
v 0.676564 0.166667 0.621514
v 0.991190 0.000000 0.988048
v 0.978704 0.071429 0.976096
v 0.963679 0.178571 0.956175
v 0.754994 0.250000 0.709163
v 0.829341 0.285714 0.792829
v 0.758884 0.273810 0.713147
v 0.723672 0.238095 0.673307
v 0.915887 0.071429 0.896414
v 0.969548 0.000000 0.964143
v 0.967607 0.107143 0.960159
v 0.950292 0.202381 0.940239
v 0.971919 0.428571 0.964143
v 0.944492 0.345238 0.932271
v 0.988856 0.000000 0.988048
v 0.526241 0.238095 0.462151
v 0.837518 0.166667 0.804781
v 0.949433 0.071429 0.936255
v 0.840904 0.095238 0.808765
v 0.935923 0.142857 0.920319
v 0.921973 0.178571 0.904382
v 0.977674 0.000000 0.972112
v 0.915941 0.166667 0.896414
v 0.971014 0.107143 0.964143
v 0.965161 0.000000 0.956175
v 0.714297 0.178571 0.661355
v 0.956584 0.178571 0.948207
v 0.778778 0.273810 0.733068
v 0.814519 0.000000 0.776892
v 0.952033 0.095238 0.940239
v 0.993961 0.130952 0.992032
v 0.858257 0.000000 0.828685
v 0.621058 0.130952 0.561753
v 0.336745 0.202381 0.278884
v 0.997545 0.535714 0.996016
v 0.668366 0.000000 0.609562
v 0.847971 0.238095 0.816733
v 0.931673 0.071429 0.916335
v 0.951015 0.178571 0.940239
v 0.999773 0.000000 1.000000
v 0.953270 0.107143 0.944223
v 0.925186 0.071429 0.908367
v 0.994518 0.166667 0.996016
v 0.744800 0.250000 0.697211
v 0.883900 0.071429 0.856574
v 0.939263 0.178571 0.924303
v 0.725276 0.071429 0.673307
v 0.952955 0.130952 0.940239
v 0.986607 0.178571 0.984064
v 0.894393 0.130952 0.872510
v 0.967669 0.000000 0.960159
v 0.858169 0.095238 0.828685
v 0.806347 0.130952 0.764940
v 0.974739 0.107143 0.968127
v 0.466748 0.142857 0.402390
v 0.918017 0.285714 0.900398
v 0.960215 0.130952 0.952191
v 0.812840 0.130952 0.772908
v 0.579186 0.000000 0.517928
v 0.945725 0.130952 0.932271
v 0.615834 0.202381 0.553785
v 0.751051 0.142857 0.705179
v 0.982775 0.166667 0.980080
v 0.806920 0.000000 0.768924
v 0.826799 0.107143 0.788845
v 0.986455 0.130952 0.984064
v 0.951494 0.107143 0.940239
v 0.584186 0.238095 0.521912
v 0.865237 0.178571 0.836653
v 0.826039 0.321429 0.788845
v 0.953327 0.285714 0.944223
v 0.823351 0.321429 0.784861
v 0.909737 0.214286 0.888446
v 0.647736 0.095238 0.589641
v 0.996438 0.452381 0.996016
v 0.792441 0.071429 0.749004
v 0.973785 0.000000 0.968127
v 0.465946 0.178571 0.402390
v 0.975656 0.107143 0.972112
v 0.669180 0.178571 0.613546
v 0.811535 0.238095 0.772908
v 0.874811 0.071429 0.848606
v 0.790568 0.000000 0.749004
v 0.992761 0.178571 0.992032
v 0.917124 0.214286 0.896414
v 0.921610 0.392857 0.904382
v 0.998339 0.130952 1.000000
v 0.949060 0.357143 0.936255
v 0.905737 0.071429 0.884462
v 0.950441 0.178571 0.940239
v 0.608780 0.107143 0.545817
v 0.960401 0.000000 0.952191
v 0.980321 0.071429 0.976096
v 0.965910 0.202381 0.960159
v 0.650761 0.107143 0.593625
v 0.872536 0.107143 0.844622
v 0.881706 0.000000 0.856574
v 0.617047 0.000000 0.557769
v 0.979808 0.214286 0.976096
v 0.982226 0.238095 0.980080
v 0.748596 0.000000 0.701195
v 0.972035 0.095238 0.964143
v 0.998779 0.095238 1.000000
v 0.686184 0.000000 0.629482
v 0.984668 0.178571 0.980080
v 0.753920 0.071429 0.705179
v 0.977639 0.000000 0.972112
v 0.974665 0.250000 0.968127
v 0.909236 0.285714 0.888446
v 0.821371 0.285714 0.784861
v 0.954418 0.345238 0.944223
v 0.854856 0.000000 0.824701
v 0.914508 0.523810 0.896414
v 0.912055 0.488095 0.892430
v 0.688846 0.285714 0.633466
v 0.849669 0.107143 0.816733
v 0.970182 0.107143 0.964143
v 0.811950 0.285714 0.772908
v 0.186464 0.000000 0.147410
v 0.984616 0.309524 0.980080
v 0.542499 0.178571 0.478088
v 0.846734 0.250000 0.812749
v 0.948225 0.107143 0.936255
v 0.721167 0.250000 0.669323
v 0.927001 0.071429 0.908367
v 0.883389 0.607143 0.856574
v 0.988852 0.202381 0.988048
v 0.781842 0.000000 0.737052
v 0.747865 0.178571 0.701195
v 0.577569 0.380952 0.513944
v 0.729657 0.178571 0.677291
v 0.783302 0.250000 0.741036
v 0.867235 0.071429 0.836653
v 0.888353 0.107143 0.864542
v 0.961008 0.071429 0.952191
v 0.971579 0.130952 0.964143
v 0.843583 0.000000 0.808765
v 0.722856 0.416667 0.673307
v 0.941364 0.071429 0.928287
v 0.857194 0.071429 0.824701
v 0.825065 0.000000 0.788845
v 0.966260 0.095238 0.960159
v 0.919662 0.000000 0.900398
v 0.983360 0.214286 0.980080
v 0.742299 0.214286 0.693227
v 0.953559 0.107143 0.944223
v 0.978825 0.428571 0.976096
v 0.950316 0.166667 0.940239
v 0.833041 0.142857 0.796813
v 0.908583 0.071429 0.888446
v 0.813889 0.000000 0.776892
v 0.971678 0.000000 0.964143
v 0.856254 0.071429 0.824701
v 0.569371 0.000000 0.505976
v 0.968681 0.107143 0.960159
v 0.705116 0.130952 0.653386
v 0.981011 0.130952 0.976096
v 0.940935 0.250000 0.928287
v 0.968907 0.107143 0.960159
v 0.949254 0.071429 0.936255
v 0.990422 0.095238 0.988048
v 0.984407 0.095238 0.980080
v 0.933397 0.107143 0.916335
v 0.702128 0.107143 0.649402
v 0.984600 0.095238 0.980080
v 0.867611 0.130952 0.836653
v 0.689348 0.071429 0.633466
v 0.886335 0.535714 0.860558
v 0.647415 0.000000 0.589641
v 0.609693 0.202381 0.549801
v 0.875880 0.107143 0.848606
v 0.832158 0.345238 0.796813
v 0.755852 0.202381 0.709163
v 0.638789 0.000000 0.577689
v 0.246216 0.000000 0.199203
v 0.811682 0.285714 0.772908
v 0.274114 0.000000 0.223108
v 0.958348 0.238095 0.948207
v 0.854012 0.130952 0.820717
v 0.695202 0.000000 0.641434
v 0.904279 0.178571 0.884462
v 0.792927 0.178571 0.752988
v 0.980666 0.214286 0.976096
v 0.966465 0.178571 0.960159
v 0.863422 0.130952 0.832669
v 0.927753 0.107143 0.912351
v 0.842580 0.000000 0.808765
v 0.951204 0.000000 0.940239
v 0.776318 0.000000 0.733068
v 0.978554 0.000000 0.972112
v 0.918405 0.071429 0.900398
v 0.858657 0.285714 0.828685
v 0.229317 0.000000 0.183267
v 0.912439 0.178571 0.892430
v 0.342512 0.071429 0.282869
v 0.706636 0.166667 0.653386
v 0.862613 0.000000 0.832669
v 0.887555 0.095238 0.860558
v 0.974266 0.500000 0.968127
v 0.860483 0.071429 0.828685
v 0.756573 0.071429 0.709163
v 0.501042 0.166667 0.438247
v 0.841955 0.428571 0.808765
v 0.883182 0.000000 0.856574
v 0.894969 0.178571 0.872510
v 0.929106 0.071429 0.912351
v 0.888646 1.000000 0.864542
v 0.727829 0.095238 0.677291
v 0.914331 0.000000 0.896414
v 0.696430 0.238095 0.641434
v 0.785014 0.595238 0.741036
v 0.978773 0.214286 0.976096
v 0.927173 0.071429 0.912351
v 0.858301 0.095238 0.828685
v 0.808812 0.095238 0.768924
v 0.983698 0.071429 0.980080
v 0.829916 0.202381 0.792829
v 0.983815 0.107143 0.980080
v 0.816573 0.107143 0.776892
v 0.964300 0.000000 0.956175
v 0.844305 0.130952 0.812749
v 0.833664 0.000000 0.796813
v 0.882866 0.416667 0.856574
v 0.920300 0.000000 0.900398
v 0.892661 0.000000 0.868526
v 0.865552 0.345238 0.836653
v 0.872752 0.000000 0.844622
v 0.512082 0.000000 0.446215
v 0.885742 0.071429 0.860558
v 0.981354 0.321429 0.976096
v 0.768080 0.107143 0.721116
v 0.784109 0.142857 0.741036
v 0.850546 0.357143 0.816733
v 0.944008 0.000000 0.932271
v 0.894050 0.488095 0.868526
v 0.970070 0.000000 0.964143
v 0.978118 0.250000 0.972112
v 0.930231 0.000000 0.912351
v 0.942816 0.107143 0.928287
v 0.929608 0.095238 0.912351
v 0.995504 0.202381 0.996016
v 0.922293 0.000000 0.904382
v 0.823760 0.095238 0.784861
v 0.870362 0.107143 0.840637
v 0.634926 0.095238 0.573705
v 0.934407 0.452381 0.920319
v 0.908523 0.178571 0.888446
v 0.937160 0.071429 0.924303
v 0.924903 0.000000 0.908367
v 0.853451 0.000000 0.820717
v 0.535563 0.130952 0.470120
v 0.538828 0.166667 0.474104
v 0.969677 0.595238 0.964143
v 0.939791 0.071429 0.924303
v 0.929795 0.000000 0.912351
v 0.847664 0.000000 0.816733
v 0.977465 0.214286 0.972112
v 0.871238 0.107143 0.844622
v 0.639921 0.107143 0.581673
v 0.982202 0.095238 0.980080
v 0.952963 0.273810 0.940239
v 0.976736 0.071429 0.972112
v 0.985251 0.142857 0.984064
v 0.962405 0.214286 0.952191
v 0.979139 0.095238 0.976096
v 0.508935 0.000000 0.446215
v 0.668202 0.142857 0.609562
v 0.746495 0.107143 0.697211
v 0.703445 0.071429 0.649402
v 0.876448 0.000000 0.848606
v 0.697019 0.130952 0.641434
v 0.670757 0.000000 0.613546
v 0.904878 0.071429 0.884462
v 0.948615 0.238095 0.936255
v 0.516515 0.000000 0.454183
v 0.769643 0.000000 0.725100
v 0.684590 0.166667 0.629482
v 0.806476 0.095238 0.764940
v 0.780423 0.166667 0.737052
v 0.996671 0.095238 0.996016
v 0.976136 0.107143 0.972112
v 0.968583 0.202381 0.960159
v 0.942932 0.285714 0.928287
v 0.853795 0.214286 0.820717
v 0.770884 0.107143 0.725100
v 0.830666 0.214286 0.796813
v 0.893344 0.250000 0.868526
v 0.992221 0.000000 0.992032
v 0.784899 0.178571 0.741036
v 0.975559 0.000000 0.972112
v 0.999588 0.357143 1.000000
v 0.880213 0.166667 0.852590
v 0.839634 0.345238 0.804781
v 0.746573 0.178571 0.697211
v 0.929081 0.178571 0.912351
v 0.976915 0.000000 0.972112
v 0.882651 0.166667 0.856574
v 0.809323 0.095238 0.768924
v 0.905183 0.107143 0.884462
v 0.919255 0.130952 0.900398
v 0.819284 0.178571 0.780876
v 0.762503 0.166667 0.717131
v 0.980276 0.285714 0.976096
v 0.885776 0.000000 0.860558
v 0.967365 0.000000 0.960159
v 0.971400 0.130952 0.964143
v 0.562662 0.535714 0.498008
v 0.861425 0.857143 0.832669
v 0.810585 0.238095 0.772908
v 0.921352 0.488095 0.904382
v 0.918096 0.166667 0.900398
v 0.234938 0.238095 0.187251
v 0.998317 0.130952 1.000000
v 0.993904 0.107143 0.992032
v 0.812190 0.273810 0.772908
v 0.860479 0.000000 0.828685
v 0.712806 0.095238 0.661355
v 0.993684 0.071429 0.992032
v 0.423242 0.178571 0.358566
v 0.896499 0.166667 0.872510
v 0.951735 0.202381 0.940239
v 0.841228 0.071429 0.808765
v 0.925727 0.071429 0.908367
v 0.817957 0.071429 0.780876
v 0.889276 0.000000 0.864542
v 0.962190 0.000000 0.952191
v 0.766155 0.785714 0.721116
v 0.939265 0.071429 0.924303
v 0.869856 0.071429 0.840637
v 0.624503 0.214286 0.565737
v 0.363109 0.238095 0.302789
v 0.744136 0.142857 0.697211
v 0.752525 0.000000 0.705179
v 0.870977 0.107143 0.840637
v 0.900269 0.000000 0.876494
v 0.830468 0.071429 0.792829
v 0.982393 0.238095 0.980080
v 0.916783 0.309524 0.896414
v 0.928728 0.107143 0.912351
v 0.931311 0.285714 0.916335
v 0.444497 0.000000 0.382470
v 0.956921 0.000000 0.948207
v 0.766534 0.000000 0.721116
v 0.972607 0.095238 0.968127
v 0.587814 0.130952 0.525896
v 0.803658 0.095238 0.764940
v 0.867272 0.071429 0.836653
v 0.577898 0.250000 0.513944
v 0.867943 0.321429 0.840637
v 0.917133 0.095238 0.896414
v 0.670693 0.071429 0.613546
v 0.842108 0.250000 0.808765
v 0.896794 0.214286 0.872510
v 0.694355 0.000000 0.641434
v 0.950712 0.071429 0.940239
v 0.715840 0.178571 0.665339
v 0.853383 0.071429 0.820717
v 0.670937 0.130952 0.613546
v 0.919854 0.095238 0.900398
v 0.716989 0.071429 0.665339
v 0.674447 0.285714 0.617530
v 0.844920 0.071429 0.812749
v 0.976819 0.071429 0.972112
v 0.959335 0.142857 0.948207
v 0.992951 0.273810 0.992032
v 0.974689 0.488095 0.968127
v 0.732783 0.178571 0.681275
v 0.731366 0.000000 0.681275
v 0.961776 0.273810 0.952191
v 0.990174 0.000000 0.988048
v 0.840351 0.238095 0.804781
v 0.982111 0.428571 0.980080
v 0.961944 0.416667 0.952191
v 0.998820 0.095238 1.000000
v 0.974198 0.250000 0.968127
l 1 4
l 4 7
l 7 10
l 10 13
l 13 16
l 16 19
l 19 22
l 22 25
l 25 28
l 28 31
l 31 34
l 34 37
l 37 40
l 40 43
l 43 46
l 46 49
l 49 52
l 52 55
l 55 58
l 58 61
l 61 64
l 64 67
l 67 70
l 70 73
l 73 76
l 76 79
l 79 82
l 82 85
l 85 88
l 88 91
l 91 94
l 94 97
l 97 100
l 100 103
l 103 106
l 106 109
l 109 112
l 112 115
l 115 118
l 118 121
l 121 124
l 124 127
l 127 130
l 130 133
l 133 136
l 136 139
l 139 142
l 142 145
l 145 148
l 148 151
l 151 154
l 154 157
l 157 160
l 160 163
l 163 166
l 166 169
l 169 172
l 172 175
l 175 178
l 178 181
l 181 184
l 184 187
l 187 190
l 190 193
l 193 196
l 196 199
l 199 202
l 202 205
l 205 208
l 208 211
l 211 214
l 214 217
l 217 220
l 220 223
l 223 226
l 226 229
l 229 232
l 232 235
l 235 238
l 238 241
l 241 244
l 244 247
l 247 250
l 250 253
l 253 256
l 256 259
l 259 262
l 262 265
l 265 268
l 268 271
l 271 274
l 274 277
l 277 280
l 280 283
l 283 286
l 286 289
l 289 292
l 292 295
l 295 298
l 298 301
l 301 304
l 304 307
l 307 310
l 310 313
l 313 316
l 316 319
l 319 322
l 322 325
l 325 328
l 328 331
l 331 334
l 334 337
l 337 340
l 340 343
l 343 346
l 346 349
l 349 352
l 352 355
l 355 358
l 358 361
l 361 364
l 364 367
l 367 370
l 370 373
l 373 376
l 376 379
l 379 382
l 382 385
l 385 388
l 388 391
l 391 394
l 394 397
l 397 400
l 400 403
l 403 406
l 406 409
l 409 412
l 412 415
l 415 418
l 418 421
l 421 424
l 424 427
l 427 430
l 430 433
l 433 436
l 436 439
l 439 442
l 442 445
l 445 448
l 448 451
l 451 454
l 454 457
l 457 460
l 460 463
l 463 466
l 466 469
l 469 472
l 472 475
l 475 478
l 478 481
l 481 484
l 484 487
l 487 490
l 490 493
l 493 496
l 496 499
l 499 502
l 502 505
l 505 508
l 508 511
l 511 514
l 514 517
l 517 520
l 520 523
l 523 526
l 526 529
l 529 532
l 532 535
l 535 538
l 538 541
l 541 544
l 544 547
l 547 550
l 550 553
l 553 556
l 556 559
l 559 562
l 562 565
l 565 568
l 568 571
l 571 574
l 574 577
l 577 580
l 580 583
l 583 586
l 586 589
l 589 592
l 592 595
l 595 598
l 598 601
l 601 604
l 604 607
l 607 610
l 610 613
l 613 616
l 616 619
l 619 622
l 622 625
l 625 628
l 628 631
l 631 634
l 634 637
l 637 640
l 640 643
l 643 646
l 646 649
l 649 652
l 652 655
l 655 658
l 658 661
l 661 664
l 664 667
l 667 670
l 670 673
l 673 676
l 676 679
l 679 682
l 682 685
l 685 688
l 688 691
l 691 694
l 694 697
l 697 700
l 700 703
l 703 706
l 706 709
l 709 712
l 712 715
l 715 718
l 718 721
l 721 724
l 724 727
l 727 730
l 730 733
l 733 736
l 736 739
l 739 742
l 742 745
l 745 748
l 748 751
l 751 754
l 754 757
l 757 760
l 760 763
l 763 766
l 766 769
l 769 772
l 772 775
l 775 778
l 778 781
l 781 784
l 784 787
l 787 790
l 790 793
l 793 796
l 796 799
l 799 802
l 802 805
l 805 808
l 808 811
l 811 814
l 814 817
l 817 820
l 820 823
l 823 826
l 826 829
l 829 832
l 832 835
l 835 838
l 838 841
l 841 844
l 844 847
l 847 850
l 850 853
l 853 856
l 856 859
l 859 862
l 862 865
l 865 868
l 868 871
l 871 874
l 874 877
l 877 880
l 880 883
l 883 886
l 886 889
l 889 892
l 892 895
l 895 898
l 898 901
l 901 904
l 904 907
l 907 910
l 910 913
l 913 916
l 916 919
l 919 922
l 922 925
l 925 928
l 928 931
l 931 934
l 934 937
l 937 940
l 940 943
l 943 946
l 946 949
l 949 952
l 952 955
l 955 958
l 958 961
l 961 964
l 964 967
l 967 970
l 970 973
l 973 976
l 976 979
l 979 982
l 982 985
l 985 988
l 988 991
l 991 994
l 994 997
l 997 1000
l 1000 1003
l 1003 1006
l 1006 1009
l 1009 1012
l 1012 1015
l 1015 1018
l 1018 1021
l 1021 1024
l 1024 1027
l 1027 1030
l 1030 1033
l 1033 1036
l 1036 1039
l 1039 1042
l 1042 1045
l 1045 1048
l 1048 1051
l 1051 1054
l 1054 1057
l 1057 1060
l 1060 1063
l 1063 1066
l 1066 1069
l 1069 1072
l 1072 1075
l 1075 1078
l 1078 1081
l 1081 1084
l 1084 1087
l 1087 1090
l 1090 1093
l 1093 1096
l 1096 1099
l 1099 1102
l 1102 1105
l 1105 1108
l 1108 1111
l 1111 1114
l 1114 1117
l 1117 1120
l 1120 1123
l 1123 1126
l 1126 1129
l 1129 1132
l 1132 1135
l 1135 1138
l 1138 1141
l 1141 1144
l 1144 1147
l 1147 1150
l 1150 1153
l 1153 1156
l 1156 1159
l 1159 1162
l 1162 1165
l 1165 1168
l 1168 1171
l 1171 1174
l 1174 1177
l 1177 1180
l 1180 1183
l 1183 1186
l 1186 1189
l 1189 1192
l 1192 1195
l 1195 1198
l 1198 1201
l 1201 1204
l 1204 1207
l 1207 1210
l 1210 1213
l 1213 1216
l 1216 1219
l 1219 1222
l 1222 1225
l 1225 1228
l 1228 1231
l 1231 1234
l 1234 1237
l 1237 1240
l 1240 1243
l 1243 1246
l 1246 1249
l 1249 1252
l 1252 1255
l 1255 1258
l 1258 1261
l 1261 1264
l 1264 1267
l 1267 1270
l 1270 1273
l 1273 1276
l 1276 1279
l 1279 1282
l 1282 1285
l 1285 1288
l 1288 1291
l 1291 1294
l 1294 1297
l 1297 1300
l 1300 1303
l 1303 1306
l 1306 1309
l 1309 1312
l 1312 1315
l 1315 1318
l 1318 1321
l 1321 1324
l 1324 1327
l 1327 1330
l 1330 1333
l 1333 1336
l 1336 1339
l 1339 1342
l 1342 1345
l 1345 1348
l 1348 1351
l 1351 1354
l 1354 1357
l 1357 1360
l 1360 1363
l 1363 1366
l 1366 1369
l 1369 1372
l 1372 1375
l 1375 1378
l 1378 1381
l 1381 1384
l 1384 1387
l 1387 1390
l 1390 1393
l 1393 1396
l 1396 1399
l 1399 1402
l 1402 1405
l 1405 1408
l 1408 1411
l 1411 1414
l 1414 1417
l 1417 1420
l 1420 1423
l 1423 1426
l 1426 1429
l 1429 1432
l 1432 1435
l 1435 1438
l 1438 1441
l 1441 1444
l 1444 1447
l 1447 1450
l 1450 1453
l 1453 1456
l 1456 1459
l 1459 1462
l 1462 1465
l 1465 1468
l 1468 1471
l 1471 1474
l 1474 1477
l 1477 1480
l 1480 1483
l 1483 1486
l 1486 1489
l 1489 1492
l 1492 1495
l 1495 1498
l 1498 1501
l 1501 1504
l 1504 1507
l 1507 1510
l 1510 1513
l 1513 1516
l 1516 1519
l 1519 1522
l 1522 1525
l 1525 1528
l 1528 1531
l 1531 1534
l 1534 1537
l 1537 1540
l 1540 1543
l 1543 1546
l 1546 1549
l 1549 1552
l 1552 1555
l 1555 1558
l 1558 1561
l 1561 1564
l 1564 1567
l 1567 1570
l 1570 1573
l 1573 1576
l 1576 1579
l 1579 1582
l 1582 1585
l 1585 1588
l 1588 1591
l 1591 1594
l 1594 1597
l 1597 1600
l 1600 1603
l 1603 1606
l 1606 1609
l 1609 1612
l 1612 1615
l 1615 1618
l 1618 1621
l 1621 1624
l 1624 1627
l 1627 1630
l 1630 1633
l 1633 1636
l 1636 1639
l 1639 1642
l 1642 1645
l 1645 1648
l 1648 1651
l 1651 1654
l 1654 1657
l 1657 1660
l 1660 1663
l 1663 1666
l 1666 1669
l 1669 1672
l 1672 1675
l 1675 1678
l 1678 1681
l 1681 1684
l 1684 1687
l 1687 1690
l 1690 1693
l 1693 1696
l 1696 1699
l 1699 1702
l 1702 1705
l 1705 1708
l 1708 1711
l 1711 1714
l 1714 1717
l 1717 1720
l 1720 1723
l 1723 1726
l 1726 1729
l 1729 1732
l 1732 1735
l 1735 1738
l 1738 1741
l 1741 1744
l 1744 1747
l 1747 1750
l 1750 1753
l 1753 1756
l 1756 1759
l 1759 1762
l 1762 1765
l 1765 1768
l 1768 1771
l 1771 1774
l 1774 1777
l 1777 1780
l 1780 1783
l 1783 1786
l 1786 1789
l 1789 1792
l 1792 1795
l 1795 1798
l 1798 1801
l 1801 1804
l 1804 1807
l 1807 1810
l 1810 1813
l 1813 1816
l 1816 1819
l 1819 1822
l 1822 1825
l 1825 1828
l 1828 1831
l 1831 1834
l 1834 1837
l 1837 1840
l 1840 1843
l 1843 1846
l 1846 1849
l 1849 1852
l 1852 1855
l 1855 1858
l 1858 1861
l 1861 1864
l 1864 1867
l 1867 1870
l 1870 1873
l 1873 1876
l 1876 1879
l 1879 1882
l 1882 1885
l 1885 1888
l 1888 1891
l 1891 1894
l 1894 1897
l 1897 1900
l 1900 1903
l 1903 1906
l 1906 1909
l 1909 1912
l 1912 1915
l 1915 1918
l 1918 1921
l 1921 1924
l 1924 1927
l 1927 1930
l 1930 1933
l 1933 1936
l 1936 1939
l 1939 1942
l 1942 1945
l 1945 1948
l 1948 1951
l 1951 1954
l 1954 1957
l 1957 1960
l 1960 1963
l 1963 1966
l 1966 1969
l 1969 1972
l 1972 1975
l 1975 1978
l 1978 1981
l 1981 1984
l 1984 1987
l 1987 1990
l 1990 1993
l 1993 1996
l 1996 1999
l 1999 2002